<?xml version="1.0" standalone="no"?>
<svg xmlns:xlink="http://www.w3.org/1999/xlink" id="wave" style="transform:rotate(180deg); transition: 0.3s" viewBox="0 0 1440 490" version="1.1" xmlns="http://www.w3.org/2000/svg"><defs><linearGradient id="sw-gradient-0" x1="0" x2="0" y1="1" y2="0"><stop stop-color="rgba(87, 166, 59, 1)" offset="0%"/><stop stop-color="rgba(0, 49, 0, 1)" offset="100%"/></linearGradient></defs><path style="transform:translate(0, 0px); opacity:1" fill="url(#sw-gradient-0)" d="M0,0L80,57.2C160,114,320,229,480,253.2C640,278,800,212,960,179.7C1120,147,1280,147,1440,155.2C1600,163,1760,180,1920,212.3C2080,245,2240,294,2400,294C2560,294,2720,245,2880,253.2C3040,261,3200,327,3360,343C3520,359,3680,327,3840,318.5C4000,310,4160,327,4320,318.5C4480,310,4640,278,4800,253.2C4960,229,5120,212,5280,236.8C5440,261,5600,327,5760,351.2C5920,376,6080,359,6240,302.2C6400,245,6560,147,6720,147C6880,147,7040,245,7200,285.8C7360,327,7520,310,7680,277.7C7840,245,8000,196,8160,212.3C8320,229,8480,310,8640,302.2C8800,294,8960,196,9120,171.5C9280,147,9440,196,9600,220.5C9760,245,9920,245,10080,253.2C10240,261,10400,278,10560,253.2C10720,229,10880,163,11040,114.3C11200,65,11360,33,11440,16.3L11520,0L11520,490L11440,490C11360,490,11200,490,11040,490C10880,490,10720,490,10560,490C10400,490,10240,490,10080,490C9920,490,9760,490,9600,490C9440,490,9280,490,9120,490C8960,490,8800,490,8640,490C8480,490,8320,490,8160,490C8000,490,7840,490,7680,490C7520,490,7360,490,7200,490C7040,490,6880,490,6720,490C6560,490,6400,490,6240,490C6080,490,5920,490,5760,490C5600,490,5440,490,5280,490C5120,490,4960,490,4800,490C4640,490,4480,490,4320,490C4160,490,4000,490,3840,490C3680,490,3520,490,3360,490C3200,490,3040,490,2880,490C2720,490,2560,490,2400,490C2240,490,2080,490,1920,490C1760,490,1600,490,1440,490C1280,490,1120,490,960,490C800,490,640,490,480,490C320,490,160,490,80,490L0,490Z"/></svg>